<svg width="351" height="104" viewBox="0 0 351 104" fill="none" xmlns="http://www.w3.org/2000/svg">
<rect y="12" width="80" height="80" rx="16" fill="#D90429"/>
<rect x="20" y="32" width="40" height="40" rx="12" fill="white"/>
<path d="M106.424 51V8.4H125.084C128.204 8.4 130.904 8.92 133.184 9.96C135.504 11 137.284 12.48 138.524 14.4C139.764 16.28 140.384 18.52 140.384 21.12C140.384 23.08 139.964 24.82 139.124 26.34C138.324 27.86 137.204 29.1 135.764 30.06C134.364 31.02 132.744 31.62 130.904 31.86L130.724 31.32C133.564 31.32 135.724 31.94 137.204 33.18C138.684 34.38 139.524 36.24 139.724 38.76L140.804 51H131.504L130.724 40.2C130.604 38.56 130.084 37.36 129.164 36.6C128.284 35.8 126.764 35.4 124.604 35.4H115.544V51H106.424ZM115.544 27.78H124.064C126.264 27.78 127.964 27.28 129.164 26.28C130.404 25.24 131.024 23.78 131.024 21.9C131.024 19.98 130.404 18.54 129.164 17.58C127.924 16.58 126.124 16.08 123.764 16.08H115.544V27.78ZM159.685 51.72C156.405 51.72 153.545 51.04 151.105 49.68C148.705 48.28 146.825 46.32 145.465 43.8C144.145 41.28 143.485 38.32 143.485 34.92C143.485 31.52 144.145 28.58 145.465 26.1C146.825 23.58 148.705 21.62 151.105 20.22C153.505 18.82 156.345 18.12 159.625 18.12C162.825 18.12 165.605 18.82 167.965 20.22C170.325 21.62 172.145 23.62 173.425 26.22C174.745 28.82 175.405 31.92 175.405 35.52V37.32H152.785C152.905 39.88 153.585 41.78 154.825 43.02C156.105 44.26 157.785 44.88 159.865 44.88C161.385 44.88 162.645 44.56 163.645 43.92C164.685 43.28 165.425 42.3 165.865 40.98L174.925 41.52C174.085 44.72 172.305 47.22 169.585 49.02C166.865 50.82 163.565 51.72 159.685 51.72ZM152.785 31.8H166.165C166.045 29.44 165.385 27.68 164.185 26.52C163.025 25.36 161.505 24.78 159.625 24.78C157.745 24.78 156.185 25.4 154.945 26.64C153.745 27.84 153.025 29.56 152.785 31.8ZM190.927 51.72C188.207 51.72 185.847 51.04 183.847 49.68C181.887 48.28 180.367 46.34 179.287 43.86C178.247 41.34 177.727 38.36 177.727 34.92C177.727 31.48 178.267 28.52 179.347 26.04C180.427 23.52 181.947 21.58 183.907 20.22C185.907 18.82 188.247 18.12 190.927 18.12C193.207 18.12 195.167 18.6 196.807 19.56C198.487 20.48 199.747 21.76 200.587 23.4V8.4H209.587V51H201.007L200.827 46.26C199.947 47.98 198.627 49.32 196.867 50.28C195.147 51.24 193.167 51.72 190.927 51.72ZM193.867 44.82C195.307 44.82 196.527 44.44 197.527 43.68C198.527 42.92 199.287 41.82 199.807 40.38C200.327 38.9 200.587 37.08 200.587 34.92C200.587 32.72 200.327 30.9 199.807 29.46C199.287 27.98 198.527 26.88 197.527 26.16C196.527 25.4 195.307 25.02 193.867 25.02C191.747 25.02 190.067 25.92 188.827 27.72C187.587 29.48 186.967 31.88 186.967 34.92C186.967 37.92 187.587 40.32 188.827 42.12C190.107 43.92 191.787 44.82 193.867 44.82ZM215.654 51V8.4H232.694C237.814 8.4 241.814 9.64 244.694 12.12C247.614 14.6 249.074 18 249.074 22.32C249.074 25.16 248.414 27.64 247.094 29.76C245.814 31.84 243.934 33.46 241.454 34.62C239.014 35.74 236.094 36.3 232.694 36.3H224.774V51H215.654ZM224.774 28.62H232.154C234.554 28.62 236.414 28.1 237.734 27.06C239.054 25.98 239.714 24.4 239.714 22.32C239.714 20.28 239.054 18.74 237.734 17.7C236.454 16.62 234.594 16.08 232.154 16.08H224.774V28.62ZM252.815 51V18.84H261.815V51H252.815ZM252.635 14.88V7.68H261.935V14.88H252.635ZM264.002 51L275.462 34.68L264.302 18.84H273.842L280.742 29.16L287.402 18.84H297.182L286.082 34.74L297.482 51H287.942L280.862 40.08L273.722 51H264.002ZM313.377 51.72C310.097 51.72 307.237 51.04 304.797 49.68C302.397 48.28 300.517 46.32 299.157 43.8C297.837 41.28 297.177 38.32 297.177 34.92C297.177 31.52 297.837 28.58 299.157 26.1C300.517 23.58 302.397 21.62 304.797 20.22C307.197 18.82 310.037 18.12 313.317 18.12C316.517 18.12 319.297 18.82 321.657 20.22C324.017 21.62 325.837 23.62 327.117 26.22C328.437 28.82 329.097 31.92 329.097 35.52V37.32H306.477C306.597 39.88 307.277 41.78 308.517 43.02C309.797 44.26 311.477 44.88 313.557 44.88C315.077 44.88 316.337 44.56 317.337 43.92C318.377 43.28 319.117 42.3 319.557 40.98L328.617 41.52C327.777 44.72 325.997 47.22 323.277 49.02C320.557 50.82 317.257 51.72 313.377 51.72ZM306.477 31.8H319.857C319.737 29.44 319.077 27.68 317.877 26.52C316.717 25.36 315.197 24.78 313.317 24.78C311.437 24.78 309.877 25.4 308.637 26.64C307.437 27.84 306.717 29.56 306.477 31.8ZM341.852 51C339.212 51 337.152 50.34 335.672 49.02C334.192 47.7 333.452 45.56 333.452 42.6V8.4H342.452V41.64C342.452 42.6 342.672 43.28 343.112 43.68C343.552 44.08 344.192 44.28 345.032 44.28H347.192V51H341.852Z" fill="white"/>
<rect x="135.83" y="83" width="80" height="6" fill="#D90429"/>
<path d="M236.495 97V75.7H238.535V95.98L237.605 95.02H249.455V97H236.495ZM252.359 97L260.129 75.7H262.829L270.569 97H268.349L266.069 90.61H256.859L254.579 97H252.359ZM257.549 88.63H265.379L261.479 77.53L257.549 88.63ZM275.003 97V75.7H282.053C284.533 75.7 286.393 76.17 287.633 77.11C288.873 78.03 289.493 79.47 289.493 81.43C289.493 82.35 289.283 83.17 288.863 83.89C288.463 84.61 287.883 85.17 287.123 85.57C286.363 85.97 285.473 86.17 284.453 86.17L284.423 85.99C286.283 85.99 287.743 86.47 288.803 87.43C289.863 88.39 290.393 89.65 290.393 91.21C290.393 93.13 289.783 94.58 288.563 95.56C287.343 96.52 285.573 97 283.253 97H275.003ZM277.043 95.02H283.253C284.893 95.02 286.133 94.69 286.973 94.03C287.833 93.37 288.263 92.4 288.263 91.12C288.263 89.9 287.823 88.95 286.943 88.27C286.063 87.57 284.833 87.22 283.253 87.22H277.043V95.02ZM277.043 85.24H282.053C283.753 85.24 285.063 84.92 285.983 84.28C286.903 83.62 287.363 82.69 287.363 81.49C287.363 80.21 286.923 79.26 286.043 78.64C285.163 78 283.833 77.68 282.053 77.68H277.043V85.24ZM303.418 97.48C301.838 97.48 300.438 97.17 299.218 96.55C298.018 95.93 297.068 95.08 296.368 94C295.668 92.9 295.278 91.66 295.198 90.28L297.328 90.13C297.408 91.19 297.708 92.13 298.228 92.95C298.748 93.75 299.448 94.37 300.328 94.81C301.208 95.25 302.258 95.47 303.478 95.47C304.538 95.47 305.458 95.32 306.238 95.02C307.018 94.72 307.618 94.28 308.038 93.7C308.458 93.12 308.668 92.42 308.668 91.6C308.668 90.9 308.508 90.28 308.188 89.74C307.868 89.2 307.248 88.7 306.328 88.24C305.408 87.78 304.068 87.34 302.308 86.92C300.688 86.52 299.388 86.08 298.408 85.6C297.448 85.12 296.748 84.53 296.308 83.83C295.868 83.11 295.648 82.21 295.648 81.13C295.648 79.99 295.928 78.98 296.488 78.1C297.048 77.2 297.848 76.5 298.888 76C299.948 75.48 301.208 75.22 302.668 75.22C304.228 75.22 305.558 75.53 306.658 76.15C307.758 76.75 308.618 77.56 309.238 78.58C309.858 79.58 310.218 80.69 310.318 81.91L308.188 82.06C308.108 81.16 307.848 80.34 307.408 79.6C306.968 78.86 306.348 78.28 305.548 77.86C304.748 77.44 303.768 77.23 302.608 77.23C301.108 77.23 299.928 77.59 299.068 78.31C298.208 79.01 297.778 79.93 297.778 81.07C297.778 81.79 297.938 82.39 298.258 82.87C298.578 83.33 299.148 83.74 299.968 84.1C300.788 84.44 301.958 84.8 303.478 85.18C305.358 85.62 306.828 86.15 307.888 86.77C308.968 87.37 309.728 88.06 310.168 88.84C310.608 89.62 310.828 90.51 310.828 91.51C310.828 92.73 310.498 93.79 309.838 94.69C309.198 95.59 308.318 96.28 307.198 96.76C306.098 97.24 304.838 97.48 303.418 97.48Z" fill="#D1D5DB"/>
</svg>
